<?xml version="1.0" standalone="no"?>
<!DOCTYPE svg PUBLIC "-//W3C//DTD SVG 20010904//EN"
 "http://www.w3.org/TR/2001/REC-SVG-20010904/DTD/svg10.dtd">
<svg version="1.0" xmlns="http://www.w3.org/2000/svg"
 width="180.000000pt" height="180.000000pt" viewBox="0 0 180.000000 180.000000"
 preserveAspectRatio="xMidYMid meet">

<g transform="translate(0.000000,180.000000) scale(0.100000,-0.100000)"
fill="#ff0000" stroke="none">
<path d="M302 1605 c-78 -46 -149 -88 -157 -95 -13 -11 -15 -86 -15 -525 0
-475 1 -513 18 -527 16 -14 461 -272 562 -326 l45 -24 95 54 c52 30 190 109
305 176 l210 121 5 172 5 173 148 85 147 85 0 181 c0 176 -1 181 -22 194 -13
8 -85 50 -162 94 l-138 79 -47 -25 c-25 -14 -95 -54 -156 -89 l-110 -64 -3
-172 -2 -172 -31 -15 c-16 -9 -71 -40 -121 -71 -50 -30 -93 -52 -95 -50 -2 2
-4 143 -3 313 0 236 -2 312 -12 325 -16 20 -303 189 -318 187 -3 -1 -69 -38
-148 -84z m311 -57 c49 -28 85 -54 80 -58 -4 -5 -60 -38 -123 -75 -109 -63
-116 -66 -140 -52 -144 82 -221 130 -215 135 4 4 59 37 123 74 l117 67 35 -21
c19 -11 75 -43 123 -70z m848 -143 c61 -36 116 -65 120 -65 27 0 -2 -25 -83
-71 -51 -29 -105 -61 -120 -71 l-27 -19 -108 62 c-59 34 -116 67 -126 74 -15
11 -7 18 65 60 46 27 101 59 123 72 22 12 41 23 42 23 1 0 52 -29 114 -65z
m-1161 -20 c61 -36 115 -65 121 -65 5 0 9 -136 9 -344 l0 -345 148 -83 147
-84 3 -143 c2 -132 1 -143 -15 -137 -19 8 -414 234 -485 278 l-48 30 0 479 c0
263 2 479 4 479 3 0 55 -29 116 -65z m428 -247 l-3 -312 -119 -68 c-66 -37
-121 -68 -123 -68 -2 0 -2 140 -1 311 l3 312 115 68 c63 37 118 68 123 68 4 1
6 -139 5 -311z m473 75 l119 -68 0 -142 c0 -79 -2 -143 -4 -143 -2 0 -58 32
-125 71 l-121 71 0 139 c0 76 3 139 6 139 4 0 60 -30 125 -67z m417 -75 l-3
-142 -115 -67 c-63 -38 -118 -68 -122 -69 -5 0 -8 65 -8 144 l0 144 28 11 c15
6 68 36 117 66 50 29 93 54 98 54 4 1 6 -63 5 -141z m-448 -247 c63 -37 115
-72 115 -77 0 -11 -514 -304 -533 -304 -15 0 -230 118 -237 130 -3 5 75 54
173 111 97 56 218 126 267 155 50 29 92 53 95 53 3 0 57 -31 120 -68z m152
-264 l-3 -142 -82 -47 c-45 -25 -165 -94 -265 -152 -101 -58 -188 -106 -193
-106 -6 0 -8 58 -7 141 l3 141 270 154 c149 85 272 154 275 154 3 0 4 -64 2
-143z"/>
</g>
</svg>
